<?xml version="1.0" encoding="UTF-8"?>
<svg id="Layer_1" data-name="Layer 1" xmlns="http://www.w3.org/2000/svg" width="6in" height="6in" viewBox="0 0 432 432">
  <defs>
    <style>
      .cls-1 {
        fill: #f15d3c;
      }
    </style>
  </defs>
  <path class="cls-1" d="M133.9013,195.6147c-1.1328,0-2.2441-.5488-2.918-1.563-1.0674-1.6064-.6338-3.7729,.9678-4.8455,.126-.0859,7.377-5.1033,7.0771-12.3684-.1367-3.3091-2.7539-7.3635-5.2861-11.2847-3.7773-5.8506-7.6836-11.9004-5.8516-18.3604,2.4658-8.6953,9.0322-11.2676,9.3105-11.3728,1.8105-.6838,3.8281,.228,4.5117,2.0356,.6836,1.8081-.2275,3.8281-2.0352,4.5117-.0938,.0405-3.584,1.5564-5.0527,6.7354-.9678,3.4131,2.0654,8.1106,4.998,12.6536,3.041,4.709,6.1846,9.5781,6.3994,14.793,.4648,11.2668-9.751,18.1904-10.1865,18.4797-.5957,.396-1.2686,.5857-1.9346,.5857Z"/>
  <path class="cls-1" d="M161.581,163.6527c-1.1328,0-2.2441-.5491-2.918-1.563-1.0674-1.6067-.6338-3.7739,.9678-4.8459,.1533-.1047,7.376-5.1162,7.0771-12.3677-.1367-3.3088-2.7539-7.3633-5.2861-11.2842-3.7773-5.8511-7.6836-11.9011-5.8516-18.3611,2.4658-8.6951,9.0312-11.2676,9.3096-11.3728,1.8066-.6846,3.8281,.2275,4.5117,2.0354,.6836,1.8081-.2275,3.8281-2.0352,4.512-.0928,.0405-3.583,1.5564-5.0518,6.7354-.9678,3.4133,2.0654,8.1111,4.998,12.6543,3.04,4.7085,6.1836,9.5776,6.3994,14.7922,.4648,11.2673-9.752,18.1907-10.1865,18.4797-.5957,.396-1.2686,.5857-1.9346,.5857Z"/>
  <path class="cls-1" d="M214.5409,339.7082c-14.9238,.0002-29.5596-1.0308-42.5928-2.9307-13.2705-1.9346-30.7373-7.665-46.7227-15.3293-9.6953-4.6487-26.3789-13.6311-29.1807-21.561-3.7256-10.5447-.9648-47.3242-.6377-51.4834,.1523-1.9268,1.8301-3.3662,3.7637-3.2148,1.9268,.1516,3.3662,1.8367,3.2148,3.7637-.8564,10.8914-2.4785,40.8545,.2588,48.6025,2.7842,7.8801,41.7363,28.1299,70.3135,32.2957,40.9824,5.9746,98.0332,3.2568,127.7764-13.4978,11.8145-6.6548,20.6289-12.4685,25.4912-16.8125,.751-.6707,1.459-1.2661,2.123-1.8245,4.0732-3.4233,5.7598-4.8403,5.7285-17.3425-.0273-10.9172,.001-40.9917,.001-41.2942,.002-1.9319,1.5684-3.4968,3.5-3.4968h.0029c1.9336,.0017,3.499,1.5703,3.4971,3.5034,0,.3022-.0283,30.365-.001,41.2703,.0371,15.0718-2.7949,18.155-8.2246,22.7188-.6143,.5159-1.2686,1.0657-1.9629,1.6855-5.3076,4.7419-14.2969,10.6941-26.7197,17.6917-21.4922,12.1067-56.2764,17.2559-89.6289,17.2561Z"/>
  <path class="cls-1" d="M208.4276,309.2785c-20.8994,.0002-40.8965-2.1187-55.6768-6.0933-41.1016-11.0535-53.2217-35.1143-56.7881-48.4727-1.8633-6.9788-.1221-15.001,4.9033-22.5886,4.2842-6.4705,10.585-12.0107,16.8535-14.8208,11.2734-5.0537,30.249-7.7981,42.8057-9.6143l3.3809-.4917c17.3535-2.5557,19.501-7.3254,21.9873-12.8484,.3818-.8479,.9375-2.5674,1.5811-4.5581,2.6963-8.3369,7.209-22.2905,16.4863-30.9102,12.2148-11.3491,28.5752-14.6694,53.0439-10.7651,33.9443,5.416,46.9199,36.7388,49.6094,44.4033,10.6904,4.6079,24.9912,15.7585,29.375,24.9243,1.8574,3.8811,6.2061,12.9707,4.8193,24.9709-1.6191,14.012-10.4824,27.6421-26.3447,40.5125-16.3213,13.2434-44.6982,22.2078-79.9043,25.2419-8.6582,.7461-17.4736,1.1101-26.1318,1.1101Zm30.4834-155.7639c-13.0732,0-22.5312,3.3833-30.1865,10.4944-7.9414,7.3789-12.1025,20.2471-14.5889,27.9355-.7373,2.2783-1.3193,4.0779-1.8594,5.2781-3.5166,7.811-7.7627,14.0154-27.3506,16.8999l-3.3984,.4944c-12.1709,1.7603-30.5635,4.4204-40.9443,9.074-9.3438,4.1882-20.9443,17.6519-17.8564,29.2158,3.1768,11.9006,14.1367,33.3784,51.8428,43.5188,39.5107,10.6252,121.6797,8.4944,155.4844-18.9346,33.7881-27.416,23.125-49.7031,19.6211-57.0271-3.6816-7.6965-17.9941-18.5544-27.1279-22.0447l-1.6172-.6179-.4893-1.655c-.1064-.3572-11.0469-35.7742-44.5391-41.1182-6.2803-1.0022-11.9082-1.5134-16.9902-1.5134Z"/>
  <path class="cls-1" d="M243.8261,213.7846c-3.8809,.0002-7.5713-.6443-10.4922-1.7429-4.4629-1.6792-7.5439-4.5164-9.1562-8.4324-3.1436-7.6316,.8271-16.4634,.998-16.8357,.8057-1.7576,2.8838-2.5286,4.6396-1.7239,1.7539,.8037,2.5264,2.8748,1.7285,4.6301h0c-.8066,1.79-2.5381,7.3069-.8848,11.2864,.8584,2.0657,2.5391,3.5454,5.1396,4.5237,5.1543,1.939,13.8525,1.8945,19.4873-1.5361,3.1162-1.8972,4.8994-4.5876,5.3018-7.9971,.3555-3.0176-.4062-5.4773-2.3291-7.52-3.1719-3.3706-8.9961-4.894-13.1279-4.6636-1.9473,.1138-3.583-1.3667-3.6924-3.2964s1.3662-3.583,3.2959-3.6924c5.748-.3271,13.7412,1.6677,18.6221,6.855,3.332,3.5405,4.7783,8.083,4.1826,13.1365-.6562,5.5767-3.6348,10.1265-8.6123,13.1572-4.4619,2.7161-9.9482,3.8516-15.1006,3.8516Z"/>
  <path class="cls-1" d="M156.3798,273.8742c-.9238,0-1.8447-.3625-2.5322-1.0828l-27.5127-28.8108c-1.335-1.3979-1.2842-3.6135,.1143-4.9485,1.3984-1.3362,3.6143-1.2832,4.9482,.114l27.5127,28.8108c1.335,1.3979,1.2842,3.6135-.1143,4.9485-.6777,.6472-1.5479,.9688-2.416,.9688Z"/>
  <path class="cls-1" d="M217.9052,291.1723c-.8965,0-1.792-.342-2.4756-1.0259l-55.1611-55.1965c-1.3662-1.3674-1.3662-3.5835,.002-4.9497,1.3662-1.3662,3.583-1.3652,4.9492,.0015l55.1611,55.1965c1.3662,1.3674,1.3662,3.5835-.002,4.9497-.6826,.6829-1.5781,1.0244-2.4736,1.0244Z"/>
  <path class="cls-1" d="M254.2128,287.5802c-.9131,0-1.8252-.355-2.5117-1.062l-63.8877-65.8088c-1.3457-1.387-1.3135-3.6028,.0742-4.9492,1.3848-1.3462,3.6016-1.3145,4.9492,.0732l63.8877,65.8088c1.3457,1.387,1.3135,3.6028-.0742,4.9492-.6797,.6602-1.5586,.9888-2.4375,.9888Z"/>
  <path class="cls-1" d="M286.1005,275.8322c-.8994,0-1.7988-.3445-2.4824-1.033l-44.1953-44.4749c-1.3623-1.3711-1.3555-3.5872,.0156-4.9497,1.3701-1.363,3.5869-1.3555,4.9492,.0156l44.1953,44.4749c1.3623,1.3711,1.3555,3.5872-.0156,4.9497-.6826,.6785-1.5752,1.0173-2.4668,1.0173Z"/>
  <path class="cls-1" d="M312.6737,259.9552c-.8936,0-1.7871-.3401-2.4707-1.0208l-38.3213-38.1838c-1.3691-1.3643-1.373-3.5803-.0088-4.9497,1.3633-1.3696,3.5791-1.3733,4.9502-.0088l38.3213,38.1838c1.3691,1.3643,1.373,3.5803,.0088,4.9497-.6836,.6863-1.582,1.0295-2.4795,1.0295Z"/>
</svg>