<svg width="167" height="159" viewBox="0 0 167 159" fill="none" xmlns="http://www.w3.org/2000/svg">
<g clip-path="url(#clip0_2057_496)">
<path d="M11.7 103.1L155 103.2C159 103.2 162.2 106.4 162.2 110.4C162.2 127 148.7 140.4 132.2 140.4L34.4 140.3C17.8 140.3 4.40002 126.8 4.40002 110.3C4.50002 106.3 7.70002 103.1 11.7 103.1Z" fill="#D99442"/>
<path d="M126.9 127C141.1 127 152.9 116.8 155.7 103.3C155.5 103.3 155.3 103.3 155.1 103.3L11.5 103.2C7.60002 103.2 4.40002 106.4 4.40002 110.4C4.40002 112.2 4.50003 113.9 4.80003 115.6C10.2 122.5 18.5 127 27.9 127H126.9Z" fill="#E4AC5F"/>
<path d="M150.9 81.8L15.3 81.7C9.99996 81.7 5.69995 77.4 5.69995 72.1C5.69995 66.8 9.99996 62.5 15.3 62.5L150.9 62.6C156.2 62.6 160.5 66.9 160.5 72.2C160.5 77.5 156.2 81.8 150.9 81.8Z" fill="#A06D4A"/>
<path d="M150.9 62.6001H144.7C145.3 63.9001 145.7 65.3001 145.7 66.9001C145.7 72.2001 141.4 76.5001 136.1 76.5001L6.69995 76.4001C8.29995 79.6001 11.5 81.7001 15.3 81.7001L150.9 81.8001C156.2 81.8001 160.5 77.5001 160.5 72.2001C160.5 66.9001 156.2 62.6001 150.9 62.6001Z" fill="#985C31"/>
<path d="M150.9 104.3L15.3 104.2C9.99996 104.2 5.69995 99.9 5.69995 94.6C5.69995 89.3 9.99996 85 15.3 85L150.9 85.1C156.2 85.1 160.5 89.4 160.5 94.7C160.5 100 156.2 104.3 150.9 104.3Z" fill="#A06D4A"/>
<path d="M150.9 85.1001H144.7C145.3 86.4001 145.7 87.8001 145.7 89.4001C145.7 94.7001 141.4 99.0001 136.1 99.0001L6.69995 98.9001C8.29995 102.1 11.5 104.2 15.3 104.2L150.9 104.3C156.2 104.3 160.5 100 160.5 94.7001C160.5 89.4001 156.2 85.1001 150.9 85.1001Z" fill="#985C31"/>
<path d="M146.7 86.9H150.7C152.3 86.9 153.6 85.4 153.6 83.5C153.6 81.6 152.3 80.1 150.7 80.1L15.5 80C13.9 80 12.6 81.5 12.6 83.4C12.6 85.3 13.9 86.8 15.5 86.8L79.2 86.9C84.1 86.9 88.9 89 92.5 92.9L111.4 112.9C112.5 114.1 114.2 114.1 115.3 112.8L133 93.2C136.7 89.2 141.6 86.9 146.7 86.9Z" fill="#FFDB31"/>
<path d="M19.5 64H15.5C13.9 64 12.6 62.4999 12.6 60.5999C12.6 58.6999 13.9 57.2 15.5 57.2L150.7 57.2999C152.3 57.2999 153.6 58.8 153.6 60.7C153.6 62.6 152.3 64.0999 150.7 64.0999L87 64C82.1 64 77.3 66.1 73.7 70L54.7 90C53.6 91.2 51.9 91.2 50.8 89.9L33.2 70.3C29.5 66.2 24.6 64 19.5 64Z" fill="#FFDB31"/>
<path d="M79.5 53.7999L12.5 53.6999C10.5 53.6999 8.80005 51.9999 8.80005 49.9999V43.0999C8.80005 41.0999 10.5 39.3999 12.5 39.3999L79.5 39.4999C81.5 39.4999 83.2 41.1999 83.2 43.1999V50.0999C83.2 52.0999 81.6 53.7999 79.5 53.7999Z" fill="#CF1C26"/>
<path d="M153.9 53.9L86.8999 53.8C84.8999 53.8 83.2 52.1 83.2 50.1V43.2C83.2 41.2 84.8999 39.5 86.8999 39.5L153.9 39.6C155.9 39.6 157.6 41.3 157.6 43.3V50.2C157.6 52.2 156 53.9 153.9 53.9Z" fill="#CF1C26"/>
<path d="M166.2 56.8C166.1 54.5 164.8 52.6001 162.9 51.9001C158.4 50.4001 157.5 46.8 151.2 46.8C143.7 46.8 143.7 52.5 136.1 52.5C128.6 52.5 128.6 46.8 121.1 46.8C113.6 46.8 113.6 52.5 106 52.5C98.5 52.5 98.5 46.8 91 46.8C83.5 46.8 83.5 52.5 75.9 52.5C68.4 52.5 68.4 46.8 60.9 46.8C53.4 46.8 53.4 52.5 45.8 52.5C38.3 52.5 38.3 46.8 30.8 46.8C23.3 46.8 23.3 52.5 15.7 52.5C11.6 52.5 9.69996 50.7 7.59996 49.1C4.59996 46.8 0.599959 49.4 0.699959 53.6C0.799959 55.9 2.09996 57.8 3.99996 58.5C8.49996 60 9.39996 63.6 15.7 63.6C23.2 63.6 23.2 57.9001 30.8 57.9001C38.3 57.9001 38.3 63.6 45.8 63.6C53.3 63.6 53.3 57.9001 60.9 57.9001C68.4 57.9001 68.4 63.6 75.9 63.6C83.4 63.6 83.4 57.9001 91 57.9001C98.5 57.9001 98.5 63.6 106 63.6C113.5 63.6 113.5 57.9001 121.1 57.9001C128.6 57.9001 128.6 63.6 136.1 63.6C143.6 63.6 143.6 57.9001 151.2 57.9001C155.3 57.9001 157.2 59.7 159.3 61.3C162.4 63.6 166.3 61 166.2 56.8Z" fill="#5EA131"/>
<path d="M159.1 42.5L7.7 42.4C5.1 42.4 3 40.3 3 37.7C3 5.5 30.8 0 40.7 0L126.2 0.1C137.4 0.1 163.8 8.4 163.8 37.8C163.8 40.4 161.7 42.5 159.1 42.5Z" fill="#E4AC5F"/>
<path d="M153.9 25.5V29.1C153.9 31.7 150.7 33.7 146.7 33.7L3.4 33.6C3.2 35 3 36.3 3 37.7C3 39 3.8 40.1 5.1 41C6.4 41.8 8.2 42.4 10.2 42.4L156.5 42.5C158.5 42.5 160.3 42 161.6 41.1C162.9 40.3 163.7 39.1 163.7 37.8C163.7 29 158.9 20.9 150.9 14.5C152.9 18 153.9 21.6 153.9 25.5Z" fill="#D99442"/>
<path d="M7.1 40.8C7.1 20 33.1 3.2 65.2 3.3H109.9C127 3.3 142.4 8.1 153 15.7C142.5 6.2 125.3 0 105.9 0H61.2C12.7 0 3 16.8 3 37.6C3 39.5 4.7 41.1 7.2 41.9C7.1 41.5 7.1 41.2 7.1 40.8Z" fill="#F9BA70"/>
<path d="M53.3 7.9H45.4C44.5 7.9 43.8 7.4 43.8 6.7C43.8 6 44.5 5.5 45.4 5.5H53.3C54.2 5.5 54.9 6 54.9 6.7C54.9 7.4 54.2 7.9 53.3 7.9Z" fill="#FFDE83"/>
<path d="M123.3 8.2999H115.4C114.5 8.2999 113.8 7.7999 113.8 7.0999C113.8 6.3999 114.5 5.8999 115.4 5.8999H123.3C124.2 5.8999 124.9 6.3999 124.9 7.0999C124.9 7.7999 124.1 8.2999 123.3 8.2999Z" fill="#FFDE83"/>
<path d="M85.6 16.7999H78.1C77.2 16.7999 76.5 16.2999 76.5 15.5999C76.5 14.8999 77.2 14.3999 78.1 14.3999H85.6C86.5 14.3999 87.2 14.8999 87.2 15.5999C87.2 16.2999 86.5 16.7999 85.6 16.7999Z" fill="#FFDE83"/>
<path d="M29.2 19.6H21.7C20.8 19.6 20.1 19.1 20.1 18.4C20.1 17.7 20.8 17.2 21.7 17.2H29.2C30.1 17.2 30.8 17.7 30.8 18.4C30.8 19.1 30.1 19.6 29.2 19.6Z" fill="#FFDE83"/>
<path d="M122.8 19.6H115.8C114.9 19.6 114.2 19.1 114.2 18.4C114.2 17.7 114.9 17.2 115.8 17.2H122.8C123.7 17.2 124.4 17.7 124.4 18.4C124.4 19.1 123.7 19.6 122.8 19.6Z" fill="#FFDE83"/>
<path d="M87.5 5.7999H83.5C82.6 5.7999 81.9 5.2999 81.9 4.5999C81.9 3.8999 82.6 3.3999 83.5 3.3999H87.5C88.4 3.3999 89.1 3.8999 89.1 4.5999C89.1 5.2999 88.4 5.7999 87.5 5.7999Z" fill="#FFDE83"/>
<path d="M56.9 18.4H52.9C52 18.4 51.3 17.9 51.3 17.2C51.3 16.5 52 16 52.9 16H56.9C57.8 16 58.5 16.5 58.5 17.2C58.5 17.8 57.8 18.4 56.9 18.4Z" fill="#FFDE83"/>
<path d="M147.1 16.7999H143.1C142.2 16.7999 141.5 16.2999 141.5 15.5999C141.5 14.8999 142.2 14.3999 143.1 14.3999H147.1C148 14.3999 148.7 14.8999 148.7 15.5999C148.7 16.2999 148 16.7999 147.1 16.7999Z" fill="#FFDE83"/>
<path d="M41.7 158.3C53.6293 158.3 63.3 148.629 63.3 136.7C63.3 124.771 53.6293 115.1 41.7 115.1C29.7706 115.1 20.1 124.771 20.1 136.7C20.1 148.629 29.7706 158.3 41.7 158.3Z" fill="#CCCBCB"/>
<path d="M119.3 158.3C131.229 158.3 140.9 148.629 140.9 136.7C140.9 124.771 131.229 115.1 119.3 115.1C107.371 115.1 97.7 124.771 97.7 136.7C97.7 148.629 107.371 158.3 119.3 158.3Z" fill="#CCCBCB"/>
<path d="M41.7 144.5C46.0078 144.5 49.5 141.008 49.5 136.7C49.5 132.392 46.0078 128.9 41.7 128.9C37.3922 128.9 33.9 132.392 33.9 136.7C33.9 141.008 37.3922 144.5 41.7 144.5Z" fill="#484747"/>
<path d="M119.3 144.5C123.608 144.5 127.1 141.008 127.1 136.7C127.1 132.392 123.608 128.9 119.3 128.9C114.992 128.9 111.5 132.392 111.5 136.7C111.5 141.008 114.992 144.5 119.3 144.5Z" fill="#484747"/>
</g>
<defs>
<clipPath id="clip0_2057_496">
<rect width="167" height="159" fill="white"/>
</clipPath>
</defs>
</svg>
